<svg xmlns="http://www.w3.org/2000/svg" xmlns:xlink="http://www.w3.org/1999/xlink" width="139.256" height="110.827" viewBox="0 0 139.256 110.827"><defs><linearGradient id="a" y1="0.5" x2="1" y2="0.5" gradientUnits="objectBoundingBox"><stop offset="0" stop-color="#d73686"/><stop offset="0.274" stop-color="#e14a69"/><stop offset="0.756" stop-color="#f06c3d"/><stop offset="1" stop-color="#f7792c"/></linearGradient><linearGradient id="b" x1="0.287" y1="0.373" x2="14.558" y2="8.476" gradientUnits="objectBoundingBox"><stop offset="0" stop-color="#9e389c"/><stop offset="0.236" stop-color="#9a389c"/><stop offset="0.446" stop-color="#8f389c"/><stop offset="0.647" stop-color="#7d399d"/><stop offset="0.841" stop-color="#633b9e"/><stop offset="1" stop-color="#493d9f"/></linearGradient><linearGradient id="c" x1="0.27" y1="0.372" x2="15.285" y2="8.617" xlink:href="#b"/><linearGradient id="d" x1="0.197" y1="0.355" x2="18.37" y2="10.538" xlink:href="#b"/><linearGradient id="e" x1="0.33" y1="0.442" x2="21.222" y2="11.632" xlink:href="#b"/><linearGradient id="f" x1="-0.143" y1="0.217" x2="0.881" y2="0.937" xlink:href="#b"/></defs><g transform="translate(-86 -334.455)"><g transform="translate(86 334.455)"><path d="M-821.321,255.981a55.484,55.484,0,0,0-50.186,31.935l7.531,3.344-4.221-.937-.084.26a.038.038,0,0,1,0,.009l-.036.09a19.062,19.062,0,0,1-6.1,7.85s2.092,1.581,2.461,2.674a2.98,2.98,0,0,1,0,1.862s-1,2.185-2.933,1.986a3.66,3.66,0,0,1,.345,2.747,2.537,2.537,0,0,1-2.553,1.7,2.539,2.539,0,0,1-.4,2.949,3.657,3.657,0,0,1-2.667.771,3.775,3.775,0,0,1-1.266-.4,1.536,1.536,0,0,0-.561,1.739,1.652,1.652,0,0,0,.941.875,1.2,1.2,0,0,0,1.012-.258l4.335-2.938.3-.186s.3-.095.4.125a.462.462,0,0,1-.091.482s-4.469,3.172-5.142,3.693a1.7,1.7,0,0,0-.766,1.7,3.793,3.793,0,0,0,.74,1.726,1.585,1.585,0,0,0,1.593.194,69.138,69.138,0,0,0,5.9-3.993.76.76,0,0,1,.443-.145c.147.014.478.38.191.65a7.646,7.646,0,0,1-.816.649c-.336.247-5.539,3.858-5.539,3.858s-.742.418-.336,1.83a2.378,2.378,0,0,0,1.072,1.6,1.5,1.5,0,0,0,1.4-.03c.639-.339,6.8-4.892,6.8-4.892a.527.527,0,0,1,.33.036c.162.1.188.423-.1.712a7.412,7.412,0,0,1-.714.639l-5.653,4.173a1.265,1.265,0,0,0-.223,1.568,4.537,4.537,0,0,0,1.432,1.349,2.019,2.019,0,0,0,1.792-.266c.382-.178,6.328-3.6,6.328-3.6a3.036,3.036,0,0,0,1.212-1.235c.359-.784,3.2-5.179,4.039-7.535a26.525,26.525,0,0,0,.832-5.109.8.8,0,0,0-.27-.831,15.564,15.564,0,0,1-3.029-3.06c-.591-.871-1.271-3.139-.467-4.55a4.321,4.321,0,0,1,1.454-1.628.767.767,0,0,1,.762,0,48.065,48.065,0,0,0,6.333,3.278,29.546,29.546,0,0,1-1.077-5.229l1.573-2.964,3.285,1.459a33.813,33.813,0,0,1,30.4-19.078,33.694,33.694,0,0,1,25.073,11.174l16.587-13.9A55.3,55.3,0,0,0-821.321,255.981Z" transform="translate(883.112 -255.981)" fill="url(#a)"/><g transform="translate(0 37.746)"><path d="M-867.16,411.712s-1.422-1.194-1.907-1.577a2.565,2.565,0,0,0-3.308.331l-.152.207a2.058,2.058,0,0,0,.421,2.889,18.367,18.367,0,0,0,2.325,1.669,2.469,2.469,0,0,0,2.891-.423l.153-.208A2.064,2.064,0,0,0-867.16,411.712Z" transform="translate(876.483 -405.113)" fill="url(#b)"/><path d="M-875.029,428.422l-2.127-1.489a1.883,1.883,0,0,0-2.709.327l-.3.4a2.038,2.038,0,0,0,.41,2.8c.508.4,2.188,1.377,2.188,1.377a2,2,0,0,0,2.8-.41l.148-.2A2.119,2.119,0,0,0-875.029,428.422Z" transform="translate(881.999 -417.305)" fill="url(#c)"/><path d="M-882.818,444.045a1.89,1.89,0,0,0-2.643.387l-.141.19a2.465,2.465,0,0,0,.588,2.726,4.268,4.268,0,0,0,1.215.733,2.781,2.781,0,0,0,2.389-.1l.223-.152c.942-.789.6-1.923-.223-2.658C-881.745,444.871-882.818,444.045-882.818,444.045Z" transform="translate(885.812 -429.745)" fill="url(#d)"/><path d="M-859.905,393.2a2.341,2.341,0,0,0-2.086.281,2.053,2.053,0,0,0-.606,1.852,2.418,2.418,0,0,0,1.339,1.973,9.755,9.755,0,0,0,3.158-2.816A3.962,3.962,0,0,0-859.905,393.2Z" transform="translate(869.002 -393.087)" fill="url(#e)"/><path d="M-769.956,453.627A33.684,33.684,0,0,1-794.75,464.5,33.8,33.8,0,0,1-824.5,446.7l-7.179,3.2,3.416-2.252-1.506-2.923-.289-3.508a16.848,16.848,0,0,1,3.162-6.534,1.741,1.741,0,0,0,.237-.572s-.337-6.04-.449-8.822a.673.673,0,0,0-.337-.66,76.688,76.688,0,0,1-7.729-3.928s-.178-.134-.583,0-1.7,1.526-.763,3.768a8.518,8.518,0,0,0,5.228,4.119,2.32,2.32,0,0,1-1.308.215,50.731,50.731,0,0,1-.891,6.206s-3.111,6.629-5.534,9.366a5.3,5.3,0,0,0,.016,1.872,1.727,1.727,0,0,1-.763-1.547,42.307,42.307,0,0,0-5.653,2.994,31.111,31.111,0,0,1,3.344,3.115l1.408,3.07-3.638,1.615a55.473,55.473,0,0,0,49.557,30.64,55.289,55.289,0,0,0,41.387-18.61Z" transform="translate(856.54 -413.059)" fill="url(#f)"/></g></g><g transform="translate(153.256 380.455)"><text transform="translate(0 13)" fill="#707070" font-size="16" font-family="Nexa-Black, Nexa" font-weight="800"><tspan x="0" y="0">CHOSEN</tspan></text></g></g></svg>