<svg xmlns="http://www.w3.org/2000/svg" xmlns:xlink="http://www.w3.org/1999/xlink" width="71.303" height="76.387" viewBox="0 0 71.303 76.387"><defs><linearGradient id="a" y1="0.5" x2="1" y2="0.5" gradientUnits="objectBoundingBox"><stop offset="0" stop-color="#d73686"/><stop offset="0.274" stop-color="#e14a69"/><stop offset="0.756" stop-color="#f06c3d"/><stop offset="1" stop-color="#f7792c"/></linearGradient><linearGradient id="b" x1="0.287" y1="0.373" x2="14.558" y2="8.476" gradientUnits="objectBoundingBox"><stop offset="0" stop-color="#9e389c"/><stop offset="0.236" stop-color="#9a389c"/><stop offset="0.446" stop-color="#8f389c"/><stop offset="0.647" stop-color="#7d399d"/><stop offset="0.841" stop-color="#633b9e"/><stop offset="1" stop-color="#493d9f"/></linearGradient><linearGradient id="c" x1="0.27" y1="0.372" x2="15.285" y2="8.617" xlink:href="#b"/><linearGradient id="d" x1="0.197" y1="0.355" x2="18.37" y2="10.538" xlink:href="#b"/><linearGradient id="e" x1="0.33" y1="0.442" x2="21.222" y2="11.632" xlink:href="#b"/><linearGradient id="f" x1="-0.143" y1="0.217" x2="0.881" y2="0.937" xlink:href="#b"/></defs><path d="M-840.2,255.981a38.243,38.243,0,0,0-34.591,22.012l5.191,2.3-2.91-.646-.058.18a.024.024,0,0,1,0,.006l-.025.062a13.139,13.139,0,0,1-4.2,5.411s1.442,1.09,1.7,1.843a2.054,2.054,0,0,1,0,1.284s-.688,1.506-2.022,1.369a2.522,2.522,0,0,1,.238,1.893,1.749,1.749,0,0,1-1.76,1.168,1.75,1.75,0,0,1-.279,2.032,2.52,2.52,0,0,1-1.838.531,2.6,2.6,0,0,1-.873-.279,1.059,1.059,0,0,0-.387,1.2,1.139,1.139,0,0,0,.649.6.825.825,0,0,0,.7-.178l2.988-2.025.21-.128s.209-.065.273.086a.318.318,0,0,1-.063.332s-3.08,2.187-3.544,2.546a1.172,1.172,0,0,0-.528,1.175,2.613,2.613,0,0,0,.51,1.19,1.093,1.093,0,0,0,1.1.134,47.657,47.657,0,0,0,4.066-2.752.524.524,0,0,1,.305-.1c.1.01.329.262.132.448a5.291,5.291,0,0,1-.562.448c-.232.17-3.818,2.659-3.818,2.659s-.511.288-.232,1.261a1.64,1.64,0,0,0,.739,1.1,1.034,1.034,0,0,0,.962-.02c.441-.233,4.685-3.372,4.685-3.372a.363.363,0,0,1,.227.025c.112.066.129.291-.066.49a5.1,5.1,0,0,1-.492.441l-3.9,2.876a.872.872,0,0,0-.154,1.08,3.128,3.128,0,0,0,.987.93,1.392,1.392,0,0,0,1.235-.183c.263-.123,4.362-2.483,4.362-2.483a2.094,2.094,0,0,0,.835-.851,51.708,51.708,0,0,0,2.784-5.193,18.285,18.285,0,0,0,.573-3.521.554.554,0,0,0-.187-.572,10.731,10.731,0,0,1-2.088-2.109,3.505,3.505,0,0,1-.322-3.136,2.978,2.978,0,0,1,1-1.122.529.529,0,0,1,.525,0,33.111,33.111,0,0,0,4.365,2.259,20.365,20.365,0,0,1-.742-3.6l1.084-2.043,2.265,1.005A23.306,23.306,0,0,1-840.2,270.9a23.224,23.224,0,0,1,17.282,7.7l11.433-9.578A38.113,38.113,0,0,0-840.2,255.981Z" transform="translate(882.793 -255.981)" fill="url(#a)"/><g transform="translate(0 26.016)"><path d="M-868.956,411.081s-.98-.823-1.315-1.087a1.768,1.768,0,0,0-2.28.228l-.105.143a1.419,1.419,0,0,0,.291,1.991,12.652,12.652,0,0,0,1.6,1.151,1.7,1.7,0,0,0,1.992-.291l.105-.143A1.423,1.423,0,0,0-868.956,411.081Z" transform="translate(875.381 -406.533)" fill="url(#b)"/><path d="M-876.745,427.827l-1.466-1.027a1.3,1.3,0,0,0-1.867.226l-.208.273a1.4,1.4,0,0,0,.282,1.929c.35.276,1.508.949,1.508.949a1.381,1.381,0,0,0,1.93-.283l.1-.138A1.46,1.46,0,0,0-876.745,427.827Z" transform="translate(881.549 -420.164)" fill="url(#c)"/><path d="M-883.748,443.929a1.3,1.3,0,0,0-1.822.267l-.1.131a1.7,1.7,0,0,0,.405,1.879,2.941,2.941,0,0,0,.837.5,1.917,1.917,0,0,0,1.647-.069l.154-.1c.649-.544.41-1.326-.154-1.832C-883.009,444.5-883.748,443.929-883.748,443.929Z" transform="translate(885.812 -434.073)" fill="url(#d)"/><path d="M-860.748,393.162a1.613,1.613,0,0,0-1.438.194,1.414,1.414,0,0,0-.418,1.276,1.666,1.666,0,0,0,.923,1.36,6.723,6.723,0,0,0,2.177-1.941A2.731,2.731,0,0,0-860.748,393.162Z" transform="translate(867.018 -393.087)" fill="url(#e)"/><path d="M-793.406,443.378a23.216,23.216,0,0,1-17.089,7.494A23.3,23.3,0,0,1-831,438.606l-4.948,2.207,2.354-1.552-1.038-2.015-.2-2.418a11.61,11.61,0,0,1,2.179-4.5,1.2,1.2,0,0,0,.164-.394s-.232-4.163-.31-6.081a.464.464,0,0,0-.232-.455,52.845,52.845,0,0,1-5.327-2.708s-.122-.092-.4,0a1.994,1.994,0,0,0-.526,2.6,5.871,5.871,0,0,0,3.6,2.839,1.6,1.6,0,0,1-.9.148,34.956,34.956,0,0,1-.614,4.277A36.934,36.934,0,0,1-841.009,437a3.653,3.653,0,0,0,.011,1.29,1.19,1.19,0,0,1-.526-1.066,29.158,29.158,0,0,0-3.9,2.063,21.448,21.448,0,0,1,2.3,2.147l.97,2.116-2.508,1.113A38.235,38.235,0,0,0-810.5,465.787a38.108,38.108,0,0,0,28.526-12.827Z" transform="translate(853.084 -415.416)" fill="url(#f)"/></g></svg>