<svg xmlns="http://www.w3.org/2000/svg" xmlns:xlink="http://www.w3.org/1999/xlink" width="419" height="443.885" viewBox="0 0 419 443.885"><defs><linearGradient id="a" y1="0.5" x2="1" y2="0.5" gradientUnits="objectBoundingBox"><stop offset="0.011" stop-color="#ccecf4"/><stop offset="0.358" stop-color="#43b8d5"/><stop offset="0.54" stop-color="#01a0c6"/><stop offset="0.567" stop-color="#0199be"/><stop offset="0.807" stop-color="#025f7e"/><stop offset="0.92" stop-color="#034966"/></linearGradient><linearGradient id="f" y1="0.5" x2="1" y2="0.5" gradientUnits="objectBoundingBox"><stop offset="0.005" stop-color="#c8afd5"/><stop offset="0.221" stop-color="#9e6ab1"/><stop offset="0.437" stop-color="#782a90"/><stop offset="0.54" stop-color="#691284"/><stop offset="0.586" stop-color="#590f70"/><stop offset="0.681" stop-color="#3c0a4c"/><stop offset="0.771" stop-color="#270732"/><stop offset="0.851" stop-color="#1b0522"/><stop offset="0.914" stop-color="#17051d"/></linearGradient><linearGradient id="g" x1="-0.02" y1="0.501" x2="0.959" y2="0.501" xlink:href="#f"/><linearGradient id="k" x1="0" y1="0.5" x2="1" y2="0.5" xlink:href="#f"/><linearGradient id="l" x1="0" y1="0.5" x2="0.999" y2="0.5" xlink:href="#f"/><radialGradient id="m" cx="0.5" cy="0.5" r="0.596" gradientTransform="translate(-1.227 4.66) scale(3.454 0.602)" gradientUnits="objectBoundingBox"><stop offset="0.005" stop-color="#ffffd1"/><stop offset="0.335" stop-color="#aed95e"/><stop offset="0.54" stop-color="#80c41c"/><stop offset="0.754" stop-color="#58b123"/><stop offset="0.914" stop-color="#40a629"/></radialGradient><radialGradient id="n" cx="0.5" cy="0.5" r="0.477" gradientTransform="translate(-0.053) scale(1.106 1)" xlink:href="#m"/><radialGradient id="o" cx="0.5" cy="0.5" r="0.422" gradientTransform="translate(-0.27) scale(1.54 1)" xlink:href="#m"/><radialGradient id="p" cx="0.5" cy="0.5" r="0.397" gradientTransform="translate(-0.475) scale(1.949 1)" xlink:href="#m"/><radialGradient id="q" cx="0.5" cy="0.5" r="0.465" gradientTransform="translate(-0.084) scale(1.168 1)" xlink:href="#m"/><radialGradient id="r" cx="0.5" cy="0.5" r="0.385" gradientTransform="translate(-0.667) scale(2.334 1)" xlink:href="#m"/><radialGradient id="s" cx="0.5" cy="0.5" r="0.37" gradientTransform="translate(-1.11) scale(3.22 1)" xlink:href="#m"/><radialGradient id="t" cx="0.5" cy="0.5" r="0.356" gradientTransform="translate(-3.516) scale(8.033 1)" xlink:href="#m"/><radialGradient id="u" cx="0.5" cy="0.5" r="0.361" gradientTransform="translate(-1.881) scale(4.762 1)" gradientUnits="objectBoundingBox"><stop offset="0.005" stop-color="#fb9a82"/><stop offset="0.239" stop-color="#fc6b4b"/><stop offset="0.54" stop-color="#fe330a"/><stop offset="0.543" stop-color="#fd320a"/><stop offset="0.914" stop-color="#fd1a16"/></radialGradient><radialGradient id="v" cx="0.5" cy="0.5" r="0.357" gradientTransform="translate(-3.296) scale(7.593 1)" xlink:href="#u"/><radialGradient id="w" cx="0.5" cy="0.5" r="0.476" gradientTransform="translate(-0.054) scale(1.109 1)" xlink:href="#u"/><radialGradient id="x" cx="0.5" cy="0.5" r="0.381" gradientTransform="translate(-0.738) scale(2.477 1)" xlink:href="#u"/><radialGradient id="y" cx="0.5" cy="0.5" r="0.367" gradientTransform="translate(-1.304) scale(3.608 1)" xlink:href="#u"/><radialGradient id="z" cx="0.5" cy="0.5" r="0.477" gradientTransform="translate(-0.053) scale(1.106 1)" xlink:href="#u"/><radialGradient id="aa" cx="0.5" cy="0.5" r="0.477" gradientTransform="translate(-0.053) scale(1.106 1)" xlink:href="#u"/><radialGradient id="ab" cx="0.5" cy="0.5" r="0.423" gradientTransform="translate(-0.262) scale(1.525 1)" xlink:href="#u"/><linearGradient id="af" x1="0" y1="0.5" x2="1" y2="0.5" xlink:href="#f"/><radialGradient id="ag" cx="0.5" cy="0.5" r="0.359" gradientTransform="translate(-2.369) scale(5.739 1)" xlink:href="#m"/><radialGradient id="ah" cx="0.5" cy="0.5" r="0.37" gradientTransform="translate(-1.11) scale(3.22 1)" xlink:href="#m"/><radialGradient id="ai" cx="0.5" cy="0.5" r="0.374" gradientTransform="translate(-0.933) scale(2.866 1)" xlink:href="#u"/><radialGradient id="aj" cx="0.5" cy="0.5" r="0.365" gradientTransform="translate(-1.444) scale(3.887 1)" xlink:href="#u"/><radialGradient id="ak" cx="0.5" cy="0.5" r="0.537" gradientTransform="translate(0.062) scale(0.876 1)" xlink:href="#u"/><radialGradient id="an" cx="0.5" cy="0.5" r="0.357" gradientTransform="translate(-3.296) scale(7.593 1)" xlink:href="#u"/></defs><g transform="translate(22 -199)"><path d="M72.379,147.216c-3.887-.452-8.17-1.189-10.713-4.464.23.3-.023,1.865-.023,2.232,0,.4-.239,1.9.023,2.232,2.543,3.275,6.826,4.011,10.713,4.464C72.241,151.664,72.583,147.24,72.379,147.216Z" transform="translate(-22 190.887)" fill="url(#a)"/><path d="M141.259,50.116a8.723,8.723,0,0,0-8.035-4.018c-.192.02.125,4.45,0,4.464a8.722,8.722,0,0,1,8.035,4.017c-.235-.333.023-1.834.023-2.232C141.282,51.916,141.523,50.489,141.259,50.116Z" transform="translate(-22 190.887)" fill="url(#a)"/><path d="M56.6,235.782a7.543,7.543,0,0,0-5.867-7.394c.353.1-.415,4.348,0,4.463a8.811,8.811,0,0,1,4.005,2.323,6.133,6.133,0,0,1,.861,1.152,6.011,6.011,0,0,1-1.9.025,4.2,4.2,0,0,1-2.523-1.714c.229.284-.023,1.877-.023,2.232,0,.389-.237,1.909.023,2.232a4.2,4.2,0,0,0,4.488,1.625c.99-.212.908-.567.928-1.438C56.627,238.12,56.617,236.95,56.6,235.782Z" transform="translate(-22 190.887)" fill="url(#a)"/><path d="M173.546,187.658c-2.262-1.421-5.392-1.356-6.716-4.034a7.307,7.307,0,0,1-.021,2.232,6.759,6.759,0,0,0,.021,2.232c.939,1.9,2.92,2.518,4.783,3.185a9.638,9.638,0,0,1,2.4,1.162c1.837,1.307.995,4.786,1.292-1.143-.067,1.344.064,3.255.011,4.3C175.448,192.987,176.118,189.273,173.546,187.658Z" transform="translate(192 217.887)" fill="url(#a)"/><path d="M250,25.248c.047-1.152-.055-2.332-.065-3.365-.031-3.066-2.43-5.2-4.613-7.042-2.094-1.772-6.49-3.837-7.176-6.728.333,1.4-.335,3.048,0,4.463.584,2.459,4.025,4.26,5.869,5.684,1.881,1.45,4.059,3.125,5.193,5.3-.119.187-.248.373-.389.556a8.129,8.129,0,0,0-1.3-.823c-1.8-.913-6.462-2.608-6.626,1.035-.087,1.906-.423,4.3.3,6.113,1.473,3.683,6.193.049,7.614-1.546.069-.077.114-.167.176-.248,3.428,2.427,2.825,5.223,2.108,9.377-.25,1.45.248,3.025,0,4.464C251.973,37.355,253.6,29.571,250,25.248Zm-8.125,1.735a4.413,4.413,0,0,1,3.556-.081C244.093,27.548,242.755,27.711,241.871,26.983Z" transform="translate(-22 190.887)" fill="url(#a)"/><g transform="translate(-22 190.887)"><path d="M37.851,206.916a14.4,14.4,0,0,0-3.821-5.474A14.217,14.217,0,0,1,32.1,199.08a7.325,7.325,0,0,1-.663-1.473,3.59,3.59,0,0,1-.18-1.058c-.006.215-.03.654-.1,1.44.131-1.479-.131-2.992,0-4.464-.256,2.869-.525,6.326.469,9.07,1.252,3.45,4.986,5.19,6.227,8.786C37.4,210.062,38.314,208.256,37.851,206.916Z" fill="url(#f)"/><path d="M31.255,196.549c.008-.243-.006-.2,0,0Z" fill="url(#g)"/></g><path d="M150.735,29.774c-2.995.318-4.412-2.128-6.249-4.017.215.221-.022,1.929-.022,2.232,0,.333-.229,1.974.022,2.232,1.837,1.889,3.254,4.335,6.249,4.017C150.925,34.218,150.614,29.788,150.735,29.774Z" transform="translate(-22 190.887)" fill="url(#f)"/><path d="M67.391,41.651a30.5,30.5,0,0,1-3.12,12.866c-.635,1.156.621,3.336,0,4.463A30.694,30.694,0,0,0,67.4,45.956C67.436,44.61,67.363,42.7,67.391,41.651Z" transform="translate(-22 190.887)" fill="url(#f)"/><path d="M231.519,219.708c-.293,2.424-1.876,3.6-3.795,4.855a7.421,7.421,0,0,0-3.794,5.859c-.143,1.476.143,2.994,0,4.464a7.446,7.446,0,0,1,3.794-5.859c1.914-1.27,3.5-2.418,3.795-4.855C231.7,222.7,231.341,221.17,231.519,219.708Z" transform="translate(83 181.887)" fill="url(#f)"/><g transform="translate(-22 190.887)"><path d="M206.167,42.871c-.066-2.509-1.421-4.81-2.756-6.847.235.36-.022,1.812-.022,2.232,0,.453-.241,1.832.022,2.232a26.831,26.831,0,0,1,1.749,3.036,12.758,12.758,0,0,1,.6,1.563,4.245,4.245,0,0,1,.188.965c.022-.351.063-.854.139-1.546-.159,1.473.159,3,0,4.463A45.616,45.616,0,0,0,206.167,42.871Z" fill="url(#k)"/><path d="M205.95,46.052c-.065,1.086.062.719,0,0Z" fill="url(#l)"/></g><path d="M111.115,177.966c.813-3.241-.128-6.5-3.344-9.151-2.438-2.01-5.381-2.958-9.059-3.915-2.226-.579-4.916-1.215-6.194-2.446,1.471-1.521,4.806-2.483,7.125-3.335,3.671-1.349,7.994-2.96,8.119-5.846a12.883,12.883,0,0,0-.457-5.431c-1.363-3.465-7.369-5.19-12.632-5.824.254.03-.318,2.649,0,2.687,6.99.842,17.549,5.153,10.107,9.534-3.655,2.151-12.4,3.426-12.978,6.93,0-.022-.012-.042-.014-.065v.225a1.56,1.56,0,0,0-.015.169,13.017,13.017,0,0,0,.015,2.216v.077a.2.2,0,0,1,.009-.033A3.177,3.177,0,0,0,92.265,165c1.359,2.093,8.139,2.919,11.1,3.887,3.544,1.16,8.411,4.951,7.4,7.486-.836,2.1-4.053,3.181-7.171,3.847-5.739,1.226-14.049,1.514-15.487,5.933-.785,2.417-.02,4.719,3.173,6.295,4.7,2.317,10.807,3.358,14.941,6.138a6.329,6.329,0,0,1,1.956,2.069,1.134,1.134,0,0,1,.081.176,6.258,6.258,0,0,1-1.363,1.874,6.8,6.8,0,0,0-2.065,5.349c.023,2.344,1.388,4.13-.585,6.337-2.125,2.377-6.133,3.885-8.231,6.35-.612.717.6,1.986,0,2.687,1.97-2.316,5.159-3.845,7.721-5.879,2.081-1.653,2.121-3.7,2.121-5.675,0-2.1-1.231-4.012.49-5.9a7.149,7.149,0,0,0,2.231-5.377c-.016-3.586-3.09-5.556-8-7.408-3.324-1.254-10.286-2.753-12.074-5.317C91.677,182.1,109.352,185.011,111.115,177.966Z" transform="translate(-42 233.887)" fill="url(#m)"/><path d="M223.353,53.472a16.271,16.271,0,0,1-6.249-2.678,9.678,9.678,0,0,1-.023,2.232c0,.248-.195,2.075.023,2.232a16.286,16.286,0,0,0,6.249,2.678C223.082,57.879,223.688,53.543,223.353,53.472Z" transform="translate(-22 190.887)" fill="url(#n)"/><path d="M219.5,27.1a14.579,14.579,0,0,1-.022-2.232c-3.748,1.709-5.3-3.317-6.7-5.8.235.419-.022,1.764-.022,2.233a6.524,6.524,0,0,0,.022,2.232c1.394,2.486,2.948,7.512,6.7,5.8A10.145,10.145,0,0,0,219.5,27.1Z" transform="translate(-22 190.887)" fill="url(#o)"/><path d="M188.073,58.11a10.654,10.654,0,0,1-4.464-4.464,3.2,3.2,0,0,1-.015.654q-.007.789-.007,1.578c0,.526,0,1.053.007,1.578a2.49,2.49,0,0,0,.015.654,10.654,10.654,0,0,0,4.464,4.464,12.69,12.69,0,0,1,.022-2.232A9.251,9.251,0,0,0,188.073,58.11Z" transform="translate(-22 190.887)" fill="url(#p)"/><path d="M118.288,66.625a7.97,7.97,0,0,0-4.464-.892c-.033,0-.036,4.463,0,4.463a7.971,7.971,0,0,1,4.464.893,10.722,10.722,0,0,1,.022-2.231C118.31,68.635,118.489,66.751,118.288,66.625Z" transform="translate(-22 190.887)" fill="url(#q)"/><path d="M259.7,15.026c-6.407-1.079-3.9,7.274-6.25,10.713-.7,1.029.683,3.467,0,4.465,2.354-3.44-.157-11.792,6.25-10.714C259.492,19.454,259.98,15.073,259.7,15.026Z" transform="translate(-22 190.887)" fill="url(#r)"/><path d="M89.922,52.581c.026-.587.022-1.191.022-1.814,0-.258-.014-.5-.026-.741q0-.705,0-1.411a5.485,5.485,0,0,1-.065.549,11.562,11.562,0,0,0-2.886-6.356,28.249,28.249,0,0,0-3.889-3.423c-1.071-.923-1.365-2.642-1.527-4.131l.064-1.454c.06-1.343-.058-3.254-.012-4.3-.173,3.923-.552,7.941.252,11.817.448,2.155,1.818,2.968,3.413,4.268a13.875,13.875,0,0,1,4.068,5.273c-1.8,3.717-7.406,6.132-9.959,8.917-.756.825.726,3.673,0,4.464,2.616-2.853,6.037-4.655,8.817-7.309A5.656,5.656,0,0,0,89.9,52.894c.006.035.016.07.022.1C89.923,52.859,89.922,52.72,89.922,52.581Z" transform="translate(-22 190.887)" fill="url(#s)"/><path d="M259.193,172.356c0-.011-.005-.024-.005-.035v-.045l0,.016a10.883,10.883,0,0,0-1.289-2.9c.051-.5.093-1.007.136-1.512.045.253.086.505.123.744q0-1.537,0-3.073c0-.247.022-.486.02-.737,0-.1-.018-.187-.022-.281v-.292c0,.057-.006.114-.009.171a8.282,8.282,0,0,0-1.061-3.562,7.259,7.259,0,0,0-2.1-1.994c1.047-1.326,2.661-2.3,3.647-3.844.611-.954.311-2.645.308-3.686-.005-1.729.094-2.834-.749-4.383a26.552,26.552,0,0,0-2.313-2.922,1.787,1.787,0,0,1,.362-.137c.671-.392-.622-4.1,0-4.464a2.28,2.28,0,0,0-1.08,1.411c0-.031-.008-.063-.012-.093v.136a14.543,14.543,0,0,0-.016,3.674c.029,3.068,1.746,4.525,2.96,6.691-1.118,1.51-2.823,2.489-3.93,4.1-.573.834-.215,2.984-.215,3.983,0,.684-.032,1.342.028,1.986v.166c0-.031.007-.058.008-.088a4.368,4.368,0,0,0,.456,1.609c.357.69,1.513,1.2,2.1,1.678a4.451,4.451,0,0,1,1.363,2.52c-.07.563-.138,1.126-.2,1.691a3.244,3.244,0,0,1-.122-.45l0,1.9c-.015.308-.025.619-.024.931,0,.147.017.281.025.42,0,.38,0,.759,0,1.139.014-.2.035-.4.052-.6a8.915,8.915,0,0,0,.646,2.156c-1.022,1.47-2.612,2.505-3.829,3.876-.752.85.723,3.649,0,4.464,1.972-2.222,4.112-3.559,4.642-6.3.034.1.072.2.1.312v-1.17c.009-.154.021-.306.021-.47C259.212,174.188,259.227,173.27,259.193,172.356Z" transform="translate(83 181.887)" fill="url(#t)"/><path d="M177.9,78.227A23.332,23.332,0,0,0,171.928,67.2c-1.435-1.512-5.59-3.334-7.456-5.45,1.3-2.028,3.438-2.926,5.888-3.947a4.105,4.105,0,0,0,2.806-3.984c.008.047.02.09.027.137V53.38c.016-.34.022-.693.022-1.063,0-.784.019-1.5-.025-2.178,0-.189,0-.378,0-.568,0,.086-.02.157-.027.239a4.762,4.762,0,0,0-1.616-3.257c-2.378-2.186-5.979-2.681-7.466-5.443.854-2.009,2.457-3.615,3.554-5.635.771-1.418.517-3.311.517-4.847a9.511,9.511,0,0,0-.689-4.52c-.828-1.7-2.653-2.908-3.8-4.448a11.064,11.064,0,0,1,.894-.852c.757-.663-.718-3.835,0-4.465a5.4,5.4,0,0,0-1.843,3.142c-.015-.1-.034-.2-.041-.306v.534a17.143,17.143,0,0,0-.011,3.77c0,.014,0,.027.005.041v.039l0-.014c.244,3.127,3.511,4.757,4.883,7.435-1.037,2.245-2.953,4.025-3.847,6.4-.573,1.522-.248,3.725-.239,5.322,0,.175.012.343.025.508v.518c0-.1.015-.2.022-.3.562,4.926,6.549,5.133,8.85,8.446-1.7,2.1-5.6,2.35-7.362,4.646a7.087,7.087,0,0,0-1.43,3.494,2.265,2.265,0,0,1-.034-.227c0,.168,0,.336,0,.5a32.292,32.292,0,0,0,0,4.072c.035,1.49,1.6,2.313,2.705,3.007a33.039,33.039,0,0,1,6.583,5.237c4.142,4.369,6.229,11.55,6.015,17.473-.049,1.345.05,3.252.012,4.3C179.042,88.98,179.079,83.529,177.9,78.227Z" transform="translate(-22 190.887)" fill="url(#u)"/><path d="M52.753,152.961c0-.2,0-.392,0-.589-.008.037-.021.067-.029.1a11.737,11.737,0,0,0-.329-2.2c-.632-2.463-3.745-1.7-5.345-3.112a41.034,41.034,0,0,1,3.227-3.951,10.037,10.037,0,0,0,1.931-6.062.192.192,0,0,1,0,.022v-.138c.007-.172.015-.343.017-.515a36.149,36.149,0,0,0-.017-3.811c-.268-2.747-2.142-3.243-4.427-4.182a13.474,13.474,0,0,1-6.387-5.164,4.866,4.866,0,0,1-.345-1.049c.154-1.946.293-3.895.428-5.842A149.7,149.7,0,0,0,41.69,97.23c.062,1.049-.091,2.963-.012,4.305.465,7.858-1.061,15.642-.794,23.494.108,3.175,1.85,4.746,4.372,6.494,2.129,1.478,5.252,1.888,6.467,4.052-.711,2.3-2.129,4-3.918,6.059a6.411,6.411,0,0,0-1.631,3.84c-.009-.049-.024-.089-.031-.14v.531c-.01.188-.018.377-.02.574-.005.928-.021,1.851.02,2.773v.586c0-.043.017-.08.021-.122.022.331.053.662.1.993.365,2.655,3.678,1.994,5.427,3.57-.282.287-.6.564-.938.877-1.393,1.284-1.882,3.45-2.51,5.169a8.681,8.681,0,0,0-.484,2.411c0-.033-.011-.065-.013-.1v.28c-.048.809-.029,1.626-.027,2.465,0,.172.015.34.023.511,0,.376,0,.751,0,1.128.012-.114.036-.235.05-.35.482,4.873,3.432,9.316,4.435,14.237a7.331,7.331,0,0,1-1.165,2.436c-.713,1.005.689,3.489,0,4.463,1.927-2.721,1.558-6.366,1.442-9.561a29.417,29.417,0,0,0-2.006-8.215c-.584-1.718-1.7-3.491-2.315-5.306a12.089,12.089,0,0,1,3.126-5.62,3.81,3.81,0,0,0,1.406-2.575c.01.091.03.168.036.265v-.675c.018-.274.026-.562.027-.884C52.777,154.436,52.782,153.7,52.753,152.961Z" transform="translate(-26 178.887)" fill="url(#v)"/><path d="M196.857,157.156a8.474,8.474,0,0,1-6.7-3.125c.228.272-.021,1.887-.021,2.233,0,.378-.238,1.921.021,2.232a8.479,8.479,0,0,0,6.7,3.124C196.866,161.62,196.916,157.157,196.857,157.156Z" transform="translate(87 226.887)" fill="url(#w)"/><path d="M158.174,83.054a11.165,11.165,0,0,1-3.572-4.911,3.009,3.009,0,0,1-.015.654c-.005.526-.006,1.052-.006,1.578a7.317,7.317,0,0,0,.021,2.232,11.167,11.167,0,0,0,3.572,4.91,9.139,9.139,0,0,1,.022-2.231C158.2,85.025,158.4,83.225,158.174,83.054Z" transform="translate(-22 190.887)" fill="url(#x)"/><path d="M144.515,181.948c-.969,5.26-4.125,9.715-5.744,14.762-.829,2.578-.568,5.479-.518,8.145.016.826.03-.682.03-.8,0-.055,0-.109,0-.164.665-6.246,5.1-11.326,6.232-17.479C144.779,184.967,144.25,183.38,144.515,181.948Z" transform="translate(192 217.887)" fill="url(#y)"/><path d="M48.887,58.087a16.284,16.284,0,0,1-6.249-2.678,9.576,9.576,0,0,1-.023,2.233c0,.248-.193,2.074.023,2.231a16.3,16.3,0,0,0,6.249,2.679C48.617,62.494,49.223,58.159,48.887,58.087Z" transform="translate(-22 190.887)" fill="url(#z)"/><path d="M294.375,27.977a16.275,16.275,0,0,1-6.25-2.678,9.563,9.563,0,0,1-.021,2.232c0,.249-.2,2.075.021,2.232a16.275,16.275,0,0,0,6.25,2.678C294.105,32.384,294.709,28.049,294.375,27.977Z" transform="translate(-22 190.887)" fill="url(#aa)"/><path d="M227.45,163.488c-2.6-1.7-6.5-3.288-7.142-6.7.268,1.432-.271,3.022,0,4.464.638,3.409,4.544,4.993,7.142,6.7a10.391,10.391,0,0,1,.023-2.231C227.473,165.49,227.655,163.622,227.45,163.488Z" transform="translate(87 226.887)" fill="url(#ab)"/><path d="M280.217,162.2a21.732,21.732,0,0,0-2.97-5.84,24.922,24.922,0,0,1-1.515-2.886c-.281-.628-.868-4.136-.911-1.358.015-1.018.014-2.036.008-3.054,0-.117-.019-1.625-.03-.8-.047,2.986-.234,5.992.635,8.883a26.527,26.527,0,0,0,3.071,5.74,20.359,20.359,0,0,1,1.443,2.957c.34.849.481,4.165.658,1.39-.085,1.341.08,3.257.013,4.3A31.144,31.144,0,0,0,280.217,162.2Z" transform="translate(87 226.887)" fill="url(#a)"/><path d="M344.146,58.407v-.352c0,.052-.013.1-.016.146a5.549,5.549,0,0,0-1.391-3.18c-2.556-2.85-7.226-2.93-8.049-7.272.271,1.43-.274,3.022,0,4.464.86,4.535,6.772,4.859,8.8,8.246-1.632,2.82-5.913,3.38-8.37,5.6-1.764,1.6-1.161,6.49-.429,8.471-.394-1.064.175-2.495.127-3.7,2.119-3.471,8.822-3.043,9.32-8.464,0,.026.012.048.014.074v-.345c.006-.1.015-.2.016-.308A32.074,32.074,0,0,0,344.146,58.407Z" transform="translate(-22 190.887)" fill="url(#a)"/><path d="M276.71,45.914c-1.434,4.354-5.186,5.282-9.374,4.91.1.009-.166,4.449,0,4.464,4.188.373,7.94-.556,9.374-4.91C277.154,49.026,276.271,47.246,276.71,45.914Z" transform="translate(-22 190.887)" fill="url(#f)"/><path d="M353.071,45.7a30.479,30.479,0,0,1-3.119,12.865c-.636,1.157.62,3.337,0,4.464a30.7,30.7,0,0,0,3.131-13.025C353.116,48.659,353.044,46.753,353.071,45.7Z" transform="translate(-22 190.887)" fill="url(#af)"/><path d="M388.857,82.29a20.263,20.263,0,0,0-3.343-15.2c-2.439-3.34-5.382-4.914-9.06-6.5-2.225-.962-4.916-2.017-6.194-4.064,1.471-2.527,4.806-4.125,7.125-5.541,3.671-2.24,7.994-4.916,8.119-9.71a35.071,35.071,0,0,0-.457-9.024c-1.362-5.756-7.369-8.622-12.632-9.676.254.051-.318,4.4,0,4.464,6.99,1.4,17.549,8.561,10.107,15.84-3.655,3.574-12.4,5.692-12.978,11.513,0-.036-.012-.07-.014-.107v.373c-.006.094-.015.185-.015.281a35.894,35.894,0,0,0,.015,3.682v.128a.567.567,0,0,1,.009-.057,7.707,7.707,0,0,0,.468,2.072c1.359,3.476,8.139,4.848,11.1,6.456,3.543,1.928,8.411,8.226,7.4,12.438-.836,3.492-4.053,5.284-7.171,6.391-5.739,2.037-14.049,2.516-15.486,9.857-.785,4.015-.021,7.841,3.172,10.458,4.7,3.851,10.807,5.579,14.941,10.2a10.219,10.219,0,0,1,1.956,3.439,2.381,2.381,0,0,1,.081.292,11.845,11.845,0,0,1-1.363,3.113,16.107,16.107,0,0,0-2.065,8.887c.024,3.894,1.388,6.861-.585,10.527-2.125,3.951-6.132,6.455-8.231,10.551-.611,1.191.6,3.3,0,4.464,1.971-3.848,5.159-6.388,7.722-9.768,2.081-2.745,2.12-6.151,2.12-9.428,0-3.488-1.231-6.665.49-9.811a16.666,16.666,0,0,0,2.231-8.933c-.016-5.957-3.089-9.229-8-12.307-3.325-2.083-10.287-4.574-12.075-8.833C369.419,89.167,387.094,93.994,388.857,82.29Z" transform="translate(-22 190.887)" fill="url(#ag)"/><path d="M326.774,44.815c.027-.587.023-1.191.023-1.815,0-.257-.015-.5-.026-.74q0-.706,0-1.411a5.205,5.205,0,0,1-.066.549,11.555,11.555,0,0,0-2.886-6.356,28.174,28.174,0,0,0-3.888-3.423c-1.072-.923-1.365-2.642-1.528-4.131l.065-1.454c.059-1.343-.059-3.254-.012-4.3-.174,3.923-.553,7.941.251,11.816.448,2.156,1.818,2.969,3.413,4.269a13.877,13.877,0,0,1,4.069,5.273c-1.8,3.717-7.407,6.132-9.959,8.917-.756.825.725,3.673,0,4.464,2.616-2.853,6.037-4.655,8.817-7.309a5.662,5.662,0,0,0,1.708-4.032c.006.035.016.07.021.1C326.775,45.093,326.774,44.954,326.774,44.815Z" transform="translate(-22 190.887)" fill="url(#ah)"/><path d="M308.958,62.7a14.246,14.246,0,0,1-4.017-7.589c.241,1.441-.244,3.012,0,4.464a14.246,14.246,0,0,0,4.017,7.589c-.214-.221.023-1.93.023-2.233C308.981,64.6,309.209,62.961,308.958,62.7Z" transform="translate(-22 190.887)" fill="url(#ai)"/><path d="M137.775,170.693c.028-.721.025-1.474,0-2.27v-.02c-.006-.246-.015-.495-.024-.751-.082-2.274-2-4.232-3.39-5.841-2.125-2.46-4.009-5.03-4.769-8.159.2-1.189.471-2.364.743-3.556.323-1.421-.32-3.058,0-4.464a32.981,32.981,0,0,0-1.021,10.972c.407,3.485,2.212,6.309,4.42,8.945a19.571,19.571,0,0,1,3.535,4.94,16.276,16.276,0,0,1-2.47,4.159c-.729.96.7,3.535,0,4.463a13.275,13.275,0,0,0,2.881-7.086,6.376,6.376,0,0,1,.089.759C137.773,172.086,137.775,171.39,137.775,170.693Z" transform="translate(192 217.887)" fill="url(#aj)"/><path d="M412.076,263.509a9.048,9.048,0,0,1-.022-2.232c-3.6,2.821-7.74.273-9.821-3.124.236.385-.022,1.79-.022,2.231,0,.475-.237,1.808.022,2.233,2.081,3.4,6.224,5.946,9.821,3.124C412.279,265.564,412.076,263.775,412.076,263.509Z" transform="translate(-351 229.887)" fill="url(#ak)"/><path d="M400.836,173.463c-3.887-.452-8.17-1.189-10.713-4.463.231.3-.023,1.864-.023,2.232,0,.4-.239,1.9.023,2.231,2.543,3.275,6.826,4.012,10.713,4.465C400.7,177.912,401.04,173.487,400.836,173.463Z" transform="translate(-351 229.887)" fill="url(#a)"/><path d="M380.339,257.829a7.543,7.543,0,0,0-5.866-7.4c.352.1-.415,4.349,0,4.464a8.816,8.816,0,0,1,4.005,2.323,6.2,6.2,0,0,1,.86,1.151,5.986,5.986,0,0,1-1.9.026,4.205,4.205,0,0,1-2.523-1.714c.229.284-.023,1.876-.023,2.232,0,.389-.237,1.909.023,2.232a4.2,4.2,0,0,0,4.488,1.625c.99-.212.908-.567.928-1.438C380.361,260.167,380.352,259,380.339,257.829Z" transform="translate(-351 229.887)" fill="url(#a)"/><path d="M301.968,299.371c0-.2,0-.392,0-.588-.008.036-.021.066-.029.1a11.713,11.713,0,0,0-.329-2.2c-.632-2.464-3.745-1.705-5.345-3.113a41.007,41.007,0,0,1,3.227-3.951,10.037,10.037,0,0,0,1.931-6.062.2.2,0,0,1,0,.022v-.138c.007-.172.014-.343.016-.515a35.879,35.879,0,0,0-.016-3.811c-.268-2.746-2.142-3.243-4.427-4.182a13.478,13.478,0,0,1-6.387-5.163,4.883,4.883,0,0,1-.345-1.049c.154-1.947.292-3.9.428-5.843a149.508,149.508,0,0,0,.208-19.237c.063,1.048-.09,2.962-.011,4.3.464,7.859-1.061,15.642-.794,23.494.108,3.175,1.85,4.746,4.372,6.494,2.129,1.479,5.252,1.888,6.467,4.052-.711,2.3-2.129,4-3.918,6.059a6.4,6.4,0,0,0-1.631,3.84c-.009-.049-.024-.089-.032-.14v.531c-.009.188-.017.377-.019.575-.005.927-.021,1.851.019,2.772v.586c0-.043.018-.08.022-.122.021.331.053.662.1.993.365,2.655,3.678,1.995,5.426,3.57-.281.287-.6.564-.937.877-1.393,1.284-1.882,3.45-2.51,5.169a8.681,8.681,0,0,0-.484,2.411c0-.033-.011-.065-.013-.1v.28c-.048.809-.029,1.626-.027,2.465,0,.172.015.341.023.512,0,.375,0,.751,0,1.127.012-.114.036-.234.05-.35.482,4.873,3.431,9.316,4.435,14.237a7.326,7.326,0,0,1-1.166,2.436c-.713,1.006.69,3.49,0,4.463,1.928-2.721,1.559-6.366,1.443-9.561a29.451,29.451,0,0,0-2.006-8.215c-.584-1.718-1.7-3.491-2.315-5.306a12.081,12.081,0,0,1,3.126-5.62,3.812,3.812,0,0,0,1.406-2.575c.009.092.03.168.036.265v-.675c.018-.274.026-.562.027-.884C301.992,300.846,302,300.106,301.968,299.371Z" transform="translate(-278 127.887)" fill="url(#an)"/><g transform="translate(-22 219.887)"><path d="M346.682,382.552l21.6,21.775L386.82,423H419V316.939l-1.2-5.279-91.557,50.3.726.727Z" fill="#23accd"/><path d="M419,346.624a198.849,198.849,0,0,1-92.028,16.06l19.71,19.868A221.15,221.15,0,0,0,419,373.52Z" fill="#fee1ce"/><path d="M394.125,423A223.483,223.483,0,0,0,419,418.284V392.67a198.4,198.4,0,0,1-50.715,11.658L386.82,423Z" fill="#fee1ce"/><path d="M346.682,382.552l21.6,21.776L386.82,423h21.018l-.353-.5c-18.126-25.781-33.5-52.783-40.3-83.027l-40.934,22.488.726.726Z" fill="#b8d4db" style="mix-blend-mode:multiply;isolation:isolate"/><path d="M417.8,311.66c3.146,5.73-14.8,21.633-40.08,35.522s-48.33,20.506-51.477,14.776,14.8-21.633,40.078-35.523S414.653,305.932,417.8,311.66Z" fill="#04709d"/><path d="M339.621,362.972c9.7-2.2,23.526-7.783,38.1-15.79,13.744-7.551,25.31-15.694,32.508-22.477C400.8,325.3,370.373,327.929,339.621,362.972Z" fill="#6199a6" style="mix-blend-mode:multiply;isolation:isolate"/><path d="M419,316.942l-.965-4.254c-1.652,14.448-.98,29.02.965,43.564Z" fill="#fff" style="mix-blend-mode:soft-light;isolation:isolate"/><path d="M390.022,154.682s-14.692-1.728-21.038,10.682c-2.889,5.65-7.345-3.159-4.188-7.627s7.135-8.483,15.985-8.23C389.037,149.743,390.022,154.682,390.022,154.682Z" fill="#68278f"/><path d="M364.435,287.818c6.343-4.564.321-14.431-.732-16.36-.67-1.228,2.688,10.422-10.287,13.521-12.931,3.088-29.625,3.038-27.8,14.253.392,2.4,2.062,5.2,4.021,7.531l.086.153a.581.581,0,0,1-.033-.091,20.1,20.1,0,0,0,4.005,3.713c8.152,5.356,18.994,5.969,27.873,9.642,11.105,4.59,16.647,15.066,6.785,23.95-.472.423,4.03,6.282,3.641,6.631,9.887-8.9,3.137-19.32-2.9-28.333-5.635-8.408-15.885-10.743-25.006-13.234-4.8-1.309-10.722-2.7-14.941-5.848C330.446,295.732,358.094,292.381,364.435,287.818Z" fill="#501e6e"/><path d="M359.129,254.481s1.238,3.493-3.739,5.448c-7.712,3.028-15.367,6.2-23.064,9.274-6.407,2.555-15.06,3.9-19.883,9.108-2.279,2.463,1.142,10.681,1.142,10.681s.127-2.752,3.663-4.964a55.02,55.02,0,0,1,12.137-5.645c10.887-3.6,18.774-7.6,29.469-11.742C364.921,263.164,359.129,254.481,359.129,254.481Z" fill="#501e6e"/><path d="M313.752,169.093c.676-1.036-4.266-5.679-3.643-6.632-7.636,11.7,3.625,26.353,11.475,35.03,2.468,2.729,5.1,5.3,7.574,8.029,1.328,1.463,4.958,8.137,5.443,9.521,2.883,8.259,2.628,18.17-4.52,23.9-.385.307,3.6,5.454,3.3,5.693,12.639-10.14,4.02-26.431-2.29-37.651C324.418,195.121,303.847,184.263,313.752,169.093Z" fill="#501e6e"/><path d="M361.277,259.3a17.993,17.993,0,0,0-2.642-5.7c-.2-.364-.451-.747-.383-.575-2.172-2.991-5.187-3.251-9.111-2.738-7.813,1.023-21.444,10.085-29.561,5.8.826-6.511,7.238-7.017,13.8-11.452,8.338-5.636,6.468-15.312,6.419-15.208-5.241,11.2-27.487,15.161-23.241,24.054l-.083-.1s2.382,4.358,3.364,5.693,5.78,5.386,11.755,4.525c6.232-.9,19.617-9.8,27.027-6.888C359.88,256.868,361.277,259.3,361.277,259.3Z" fill="#68278f"/><path d="M361.377,268.157c-13.8-14.543-26.918,10.649-40.079,17.747-5.031,2.715-8.982-3.914-9.321-6.836-.073.042-1.489,4.287,1.608,9.924,2.1,3.818,8.163,7.419,11.666,4.236,10.251-9.307,27.815-29.5,38.08-20.245a13.187,13.187,0,0,1,2.716,3.388C365.01,273.846,363.274,270.153,361.377,268.157Z" fill="#68278f"/><path d="M383.2,197.026c-8.009,3.444-18.118,1.049-20.118,12.193-.682,3.815,2.979,8.755,4.84,11.875A7.333,7.333,0,0,0,373,224.772l-3.4-6.187a7.819,7.819,0,0,1-2.717-1.425c-.256-3.4,1.352-6.394,4.225-9,4.07-3.7,10.9-2.417,15.743-4.5C386.676,203.731,383.478,196.908,383.2,197.026Z" fill="#fd3c18"/><path d="M407.219,208.792c-.154-.276-.3-.551-.451-.826.009.044.006.086.017.129a14.5,14.5,0,0,0-6.47-5.665c-12.261-5.595-22.191,23.506-33.436,14.73L364.8,215.9c1.021,1.926,2.261,3.752,3.121,5.192,4.3,7.185,13.639,2.882,17.941-1.666,3.351-3.542,5.416-7.54,9.764-10.063,3.561-2.071,8.092-1.061,11.356,1.351-.178,3.541-2.225,6.587-4.37,9.6-.663.937,4.25,5.779,3.646,6.632,2.847-4.006,5.632-8.315,3.744-13.012.044.074.1.144.14.217-.08-.147-.161-.293-.239-.44-.113-.257-.228-.515-.37-.776C408.725,211.441,408,210.064,407.219,208.792Z" fill="#fd1a16"/><path d="M373.291,186.323c-6.185-2.769-12.351.656-16.426,5.218-6.259,7.014-7.423,13.519-7.462,22.568-.01,2.233,3.652,4.456,3.644,6.633.044-10.575,2.313-18.186,10.42-25.558,6.64-6.037,15.6-2.674,20.58,3.374.332.67.67,1.338,1.031,2,1.1,1.99,1.617,2.9,1.57,2.771l.165.306C384.078,196.835,380.223,189.428,373.291,186.323Z" fill="#fd1a16"/><path d="M278.76,232.943c-7.441,6.694-21.828,8.107-29.105.449,1.671,1.757,1.954,4.855,3.643,6.632,7.276,7.657,21.666,6.245,29.1-.448C282.875,239.152,278.373,233.291,278.76,232.943Z" fill="#fd3c18"/><path d="M358.012,134.154c-5.534-.085-11.15,1.448-14.434,6.2-.669.972,4.256,5.745,3.645,6.631,3.283-4.755,8.9-6.287,14.433-6.2-.279-.005-1.637-3.061-1.789-3.334C359.7,137.145,358.381,134.161,358.012,134.154Z" fill="#fd3c18"/><path d="M274.249,192.257c-5,1.4-10.827,1.884-15.179-1.446.735.564,1.35,2.535,1.789,3.334.463.847,1.063,2.695,1.854,3.3,4.353,3.329,10.181,2.846,15.179,1.446C277.4,199.027,274.853,192.087,274.249,192.257Z" fill="#fd3c18"/></g><g transform="translate(-22 219.887)"><path d="M16.262,308.374l-.219.9L9.986,333.844l-6.64,26.923L0,374.363V423H28.539l3.059-2.969L48.723,403.4l10.922-10.608,17.128-16.637L98.18,355.365Z" fill="#ff8001"/><path d="M76.773,376.155,59.645,392.792A200.14,200.14,0,0,1,9.986,333.844l6.057-24.565A179.688,179.688,0,0,0,76.773,376.155Z" fill="#fee1ce"/><path d="M3.347,360.767,0,374.363V388.1a200.91,200.91,0,0,0,31.6,31.928L48.723,403.4A179.2,179.2,0,0,1,3.347,360.767Z" fill="#fee1ce"/><path d="M0,414.81V423H9.9Q4.8,419.087,0,414.81Z" fill="#fee1ce"/><path d="M16.262,308.374l-.219.9L9.986,333.844,3.347,360.767,0,374.363v43.2c2.571-6.013,5.178-12.01,7.777-17.985,11.365-26.128,24.969-50.7,45.11-70.192Z" fill="#e4bfb7" style="mix-blend-mode:multiply;isolation:isolate"/><path d="M98.18,355.365c-2.94,5.127-23.662-1.238-46.284-14.214S13.32,313.5,16.262,308.374s23.662,1.239,46.283,14.214S101.12,350.239,98.18,355.365Z" fill="#ab4401"/><path d="M21.775,319.176c6.267,6.454,17.081,14.495,30.121,21.975,12.3,7.055,24.03,12.148,32.653,14.511C79.646,348.663,63.3,326.417,21.775,319.176Z" fill="#e4bfb7" style="mix-blend-mode:multiply;isolation:isolate"/><path d="M28.539,423l3.06-2.969L48.723,403.4l10.922-10.608,17.128-16.637L97.5,356.029c-18.95,8.777-35.386,22.227-50.805,36.818-10.117,9.578-19.283,19.9-28.642,30.151Z" fill="#fff" style="mix-blend-mode:soft-light;isolation:isolate"/><path d="M206.643,252.662s-5.584-12.151-18.149-11.209c-5.723.43-1.021-7.156,3.914-6.823s9.906,1.514,13.878,8.464C209.989,249.577,206.643,252.662,206.643,252.662Z" fill="#68278f"/><path d="M91.838,295.584c6.508,2.747,11.289-6.546,12.281-8.267.634-1.094-6.779,6.98-15.277-1.576C80.371,277.214,72.552,264.3,64.756,271a15.657,15.657,0,0,0-3.919,6.648l-.079.138a.572.572,0,0,1,.055-.069,18.134,18.134,0,0,0-.98,4.839c-.3,8.812,4.333,17.469,5.678,26.053,1.684,10.731-3.794,19.939-15.292,16.509-.547-.164-2.951,6.067-3.4,5.933,11.527,3.438,16.389-6.673,20.5-15.577,3.838-8.307.816-17.317-1.556-25.53-1.247-4.319-2.965-9.548-2.519-14.285C69.73,273.074,85.33,292.837,91.838,295.584Z" fill="#501e6e"/><path d="M115.07,275.8s-2.113,2.6-5.964-.322c-5.967-4.527-12.02-8.941-18.014-13.436-4.99-3.741-10.1-9.79-16.391-11.06-2.972-.6-7.707,5.911-7.707,5.911s2.186-1.2,5.557.491a49.715,49.715,0,0,1,10.07,6.709c7.907,6.708,14.7,10.916,22.934,17.218C111.1,284.353,115.07,275.8,115.07,275.8Z" fill="#501e6e"/><path d="M159.615,200.578c1.119.035,2.377-5.965,3.4-5.934-12.621-.387-18.63,15.2-21.636,25.346-.943,3.191-1.692,6.435-2.631,9.627a52.453,52.453,0,0,1-4.785,8.681c-5.02,6.114-12.789,10.582-20.58,7.765-.416-.152-2.516,5.344-2.84,5.227,13.777,4.983,22.294-9.338,27.982-19.491C144.547,221.062,143.244,200.074,159.615,200.578Z" fill="#501e6e"/><path d="M112.365,279.721A16.282,16.282,0,0,0,115.518,275c.186-.326.365-.7.263-.565,1.286-3.085.07-5.534-2.175-8.322-4.467-5.548-17.879-11.8-18.4-20.085,5.417-2.426,8.825,2.286,15.337,5.263,8.275,3.783,14.862-2.216,14.76-2.2-11.114,1.229-24.64-14.078-29.5-6.615.013-.037.036-.11.036-.11s-2.24,3.89-2.809,5.275a12.5,12.5,0,0,0,2.041,11.2c3.625,4.387,16.8,10.528,18.038,17.619C113.582,277.5,112.365,279.721,112.365,279.721Z" fill="#68278f"/><path d="M105.573,283.968c4.73-17.494-20.889-15.764-32.563-22.579-4.463-2.606-1.207-8.776.888-10.413-.067-.038-4.009.868-6.9,5.913-1.958,3.415-1.883,9.792,2.223,11,12.009,3.529,35.862,7.583,33.551,19.86a11.9,11.9,0,0,1-1.336,3.69C102.893,289.452,104.926,286.373,105.573,283.968Z" fill="#68278f"/><path d="M170.748,267.332c-6.429-4.561-9.338-13.491-18.881-9.789-3.265,1.268-5.355,6.419-6.887,9.324a6.649,6.649,0,0,0-.454,5.646l3.175-5.535a7.157,7.157,0,0,1-.178-2.769c2.5-1.8,5.573-1.967,8.938-.976,4.77,1.4,7,7.275,10.883,10.032C167.209,273.169,170.969,267.488,170.748,267.332Z" fill="#fd3c18"/><path d="M172.971,291.4l.425-.737c-.028.029-.062.047-.091.076a13.115,13.115,0,0,0,1.328-7.661c-1.454-12.1-28.59-6.063-27.11-18.874l0-2.2c-1.005,1.7-1.832,3.513-2.538,4.853-3.525,6.7,4.2,11.883,9.731,13.064,4.31.92,8.369.633,12.363,2.8,3.274,1.773,4.628,5.746,4.3,9.4-2.815,1.53-6.13,1.384-9.466,1.149-1.035-.072-2.461,6-3.4,5.933,4.434.312,9.068.435,11.805-3.234-.037.068-.066.142-.1.209.075-.13.149-.261.226-.391.147-.208.29-.418.425-.649C171.635,293.816,172.356,292.605,172.971,291.4Z" fill="#fd1a16"/><path d="M174.342,254.645c-.774-6.081-6.321-9.227-11.758-10.223-8.361-1.532-13.93.632-20.934,4.863-1.726,1.043-1.716,4.917-3.4,5.933,8.184-4.943,15.125-6.774,24.63-3.987,7.786,2.283,9.411,10.786,7.085,17.473-.361.571-.717,1.146-1.056,1.736-1.02,1.781-1.479,2.617-1.4,2.516-.053.09-.108.179-.158.27C171.309,267.918,175.211,261.456,174.342,254.645Z" fill="#fd1a16"/><path d="M93.861,203.626c-8.668-2.592-16.53-13.032-14.045-22.253-.571,2.116-2.826,3.794-3.4,5.935-2.484,9.219,5.378,19.66,14.046,22.251C91.006,209.724,93.412,203.492,93.861,203.626Z" transform="translate(0 15)" fill="#fd3c18"/><path d="M207.417,218.294c-2.539-4.313-6.366-7.924-11.583-8.22-1.064-.06-2.431,5.987-3.4,5.933,5.216.3,9.043,3.907,11.582,8.221-.129-.219,1.59-2.705,1.73-2.949C205.9,221,207.585,218.58,207.417,218.294Z" fill="#fd3c18"/><path d="M123.143,180.993c-3.434-3.2-6.55-7.469-6.03-12.4-.089.833-1.322,2.235-1.732,2.95-.435.756-1.579,2.09-1.672,2.984-.519,4.927,2.6,9.2,6.03,12.4C119.4,186.607,123.558,181.379,123.143,180.993Z" fill="#fd3c18"/></g></g></svg>