<svg xmlns="http://www.w3.org/2000/svg" xmlns:xlink="http://www.w3.org/1999/xlink" width="147.947" height="50.721" viewBox="0 0 147.947 50.721"><defs><linearGradient id="a" y1="0.5" x2="1" y2="0.5" gradientUnits="objectBoundingBox"><stop offset="0" stop-color="#d73686"/><stop offset="0.274" stop-color="#e14a69"/><stop offset="0.756" stop-color="#f06c3d"/><stop offset="1" stop-color="#f7792c"/></linearGradient><linearGradient id="b" x1="0.287" y1="0.373" x2="14.558" y2="8.476" gradientUnits="objectBoundingBox"><stop offset="0" stop-color="#9e389c"/><stop offset="0.236" stop-color="#9a389c"/><stop offset="0.446" stop-color="#8f389c"/><stop offset="0.647" stop-color="#7d399d"/><stop offset="0.841" stop-color="#633b9e"/><stop offset="1" stop-color="#493d9f"/></linearGradient><linearGradient id="c" x1="0.27" y1="0.372" x2="15.285" y2="8.617" xlink:href="#b"/><linearGradient id="d" x1="0.197" y1="0.355" x2="18.37" y2="10.538" xlink:href="#b"/><linearGradient id="e" x1="0.33" y1="0.442" x2="21.222" y2="11.632" xlink:href="#b"/><linearGradient id="f" x1="-0.143" y1="0.217" x2="0.881" y2="0.937" xlink:href="#b"/></defs><path d="M-854.277,255.981A25.393,25.393,0,0,0-877.245,270.6l3.447,1.53-1.932-.429-.038.119,0,0-.016.041a8.724,8.724,0,0,1-2.792,3.593s.957.724,1.126,1.224a1.364,1.364,0,0,1,0,.852s-.457,1-1.342.909a1.675,1.675,0,0,1,.158,1.257,1.161,1.161,0,0,1-1.168.776,1.162,1.162,0,0,1-.185,1.349,1.673,1.673,0,0,1-1.22.353,1.727,1.727,0,0,1-.579-.185.7.7,0,0,0-.257.8.756.756,0,0,0,.431.4.548.548,0,0,0,.463-.118l1.984-1.345.139-.085s.139-.043.181.057a.211.211,0,0,1-.042.221s-2.045,1.452-2.353,1.69a.778.778,0,0,0-.351.78,1.735,1.735,0,0,0,.339.79.725.725,0,0,0,.729.089,31.643,31.643,0,0,0,2.7-1.827.348.348,0,0,1,.2-.067c.067.006.219.174.088.3a3.5,3.5,0,0,1-.373.3c-.154.113-2.535,1.766-2.535,1.766s-.34.191-.154.838a1.089,1.089,0,0,0,.491.732.687.687,0,0,0,.639-.014c.292-.155,3.111-2.239,3.111-2.239a.241.241,0,0,1,.151.016c.074.044.086.193-.044.326a3.386,3.386,0,0,1-.327.293l-2.587,1.91a.579.579,0,0,0-.1.717,2.077,2.077,0,0,0,.656.618.924.924,0,0,0,.82-.122c.175-.082,2.9-1.648,2.9-1.648a1.39,1.39,0,0,0,.555-.565,34.334,34.334,0,0,0,1.849-3.448,12.139,12.139,0,0,0,.381-2.338.368.368,0,0,0-.124-.38,7.124,7.124,0,0,1-1.386-1.4,2.328,2.328,0,0,1-.214-2.083,1.977,1.977,0,0,1,.666-.745.351.351,0,0,1,.349,0,22,22,0,0,0,2.9,1.5,13.522,13.522,0,0,1-.493-2.393l.72-1.356,1.5.668a15.475,15.475,0,0,1,13.914-8.731A15.42,15.42,0,0,1-842.8,271l7.591-6.36A25.307,25.307,0,0,0-854.277,255.981Z" transform="translate(882.555 -255.981)" fill="url(#a)"/><g transform="translate(0 17.275)"><path d="M-870.294,410.611s-.651-.547-.873-.722a1.174,1.174,0,0,0-1.514.151l-.07.095a.942.942,0,0,0,.193,1.322,8.4,8.4,0,0,0,1.064.764,1.13,1.13,0,0,0,1.323-.193l.07-.1A.945.945,0,0,0-870.294,410.611Z" transform="translate(874.56 -407.591)" fill="url(#b)"/><path d="M-878.023,427.383-879,426.7a.862.862,0,0,0-1.24.15l-.138.181a.933.933,0,0,0,.188,1.281c.232.184,1,.63,1,.63a.917.917,0,0,0,1.281-.188l.068-.092A.97.97,0,0,0-878.023,427.383Z" transform="translate(881.213 -422.295)" fill="url(#c)"/><path d="M-884.441,443.843a.865.865,0,0,0-1.21.177l-.064.087a1.128,1.128,0,0,0,.269,1.248,1.953,1.953,0,0,0,.556.335,1.273,1.273,0,0,0,1.094-.046l.1-.07c.431-.361.273-.88-.1-1.216C-883.951,444.22-884.441,443.843-884.441,443.843Z" transform="translate(885.812 -437.298)" fill="url(#d)"/><path d="M-861.375,393.137a1.071,1.071,0,0,0-.955.129.939.939,0,0,0-.277.848,1.106,1.106,0,0,0,.613.9,4.465,4.465,0,0,0,1.445-1.289A1.813,1.813,0,0,0-861.375,393.137Z" transform="translate(865.539 -393.087)" fill="url(#e)"/><path d="M-810.883,435.74a15.416,15.416,0,0,1-11.347,4.976,15.469,15.469,0,0,1-13.613-8.145l-3.285,1.465,1.563-1.03-.689-1.338-.132-1.605a7.71,7.71,0,0,1,1.447-2.991.8.8,0,0,0,.109-.262s-.154-2.764-.206-4.038a.308.308,0,0,0-.154-.3,35.1,35.1,0,0,1-3.537-1.8s-.081-.061-.267,0a1.324,1.324,0,0,0-.349,1.724,3.9,3.9,0,0,0,2.393,1.885,1.061,1.061,0,0,1-.6.1,23.211,23.211,0,0,1-.408,2.84,24.523,24.523,0,0,1-2.532,4.286,2.425,2.425,0,0,0,.007.857.79.79,0,0,1-.349-.708,19.358,19.358,0,0,0-2.587,1.37,14.24,14.24,0,0,1,1.53,1.426l.644,1.405-1.665.739a25.388,25.388,0,0,0,22.68,14.023,25.3,25.3,0,0,0,18.941-8.517Z" transform="translate(850.509 -417.173)" fill="url(#f)"/></g><g transform="translate(34.947 13)"><text transform="translate(0 19)" fill="#ea5f4d" font-size="18" font-family="SegoeUI-Bold, Segoe UI" font-weight="700"><tspan x="0" y="0">DASH</tspan><tspan y="0" fill="#5d3b9e">BOARD</tspan></text></g></svg>