<svg id="Logo" xmlns="http://www.w3.org/2000/svg" xmlns:xlink="http://www.w3.org/1999/xlink" width="203" height="143.917" viewBox="0 0 203 143.917">
  <defs>
    <linearGradient id="linear-gradient" y1="0.5" x2="1" y2="0.5" gradientUnits="objectBoundingBox">
      <stop offset="0" stop-color="#d73686"/>
      <stop offset="0.274" stop-color="#e14a69"/>
      <stop offset="0.756" stop-color="#f06c3d"/>
      <stop offset="1" stop-color="#f7792c"/>
    </linearGradient>
    <linearGradient id="linear-gradient-2" x1="0.287" y1="0.373" x2="14.558" y2="8.476" gradientUnits="objectBoundingBox">
      <stop offset="0" stop-color="#9e389c"/>
      <stop offset="0.236" stop-color="#9a389c"/>
      <stop offset="0.446" stop-color="#8f389c"/>
      <stop offset="0.647" stop-color="#7d399d"/>
      <stop offset="0.841" stop-color="#633b9e"/>
      <stop offset="1" stop-color="#493d9f"/>
    </linearGradient>
    <linearGradient id="linear-gradient-3" x1="0.27" y1="0.372" x2="15.285" y2="8.617" xlink:href="#linear-gradient-2"/>
    <linearGradient id="linear-gradient-4" x1="0.197" y1="0.355" x2="18.37" y2="10.538" xlink:href="#linear-gradient-2"/>
    <linearGradient id="linear-gradient-5" x1="0.33" y1="0.442" x2="21.222" y2="11.632" xlink:href="#linear-gradient-2"/>
    <linearGradient id="linear-gradient-6" x1="-0.143" y1="0.217" x2="0.881" y2="0.937" xlink:href="#linear-gradient-2"/>
  </defs>
  <g id="Group_2" data-name="Group 2" transform="translate(885.812 -255.981)">
    <path id="Path_1" data-name="Path 1" d="M-803.178,255.981a72.05,72.05,0,0,0-65.17,41.471l9.78,4.342-5.482-1.217-.109.338a.046.046,0,0,1-.005.011l-.046.117a24.755,24.755,0,0,1-7.921,10.194s2.716,2.053,3.2,3.473a3.87,3.87,0,0,1,0,2.419s-1.3,2.837-3.809,2.578a4.753,4.753,0,0,1,.448,3.567,3.3,3.3,0,0,1-3.315,2.2s1.188,2.257-.525,3.829a4.749,4.749,0,0,1-3.463,1,4.9,4.9,0,0,1-1.644-.526,2,2,0,0,0-.729,2.258,2.146,2.146,0,0,0,1.222,1.136,1.554,1.554,0,0,0,1.314-.335l5.63-3.816.4-.242s.394-.123.515.162a.6.6,0,0,1-.118.626s-5.8,4.12-6.677,4.8a2.208,2.208,0,0,0-.995,2.213,4.926,4.926,0,0,0,.961,2.242,2.058,2.058,0,0,0,2.068.252c1.078-.349,7.661-5.185,7.661-5.185a.987.987,0,0,1,.575-.189c.191.018.621.493.249.844a9.954,9.954,0,0,1-1.059.843c-.436.321-7.193,5.01-7.193,5.01s-.964.543-.437,2.377a3.088,3.088,0,0,0,1.392,2.078,1.948,1.948,0,0,0,1.813-.039c.83-.44,8.826-6.352,8.826-6.352a.685.685,0,0,1,.429.046c.21.124.243.549-.125.924a9.637,9.637,0,0,1-.927.83l-7.34,5.419a1.643,1.643,0,0,0-.29,2.036,5.89,5.89,0,0,0,1.86,1.752,2.622,2.622,0,0,0,2.327-.346c.5-.232,8.218-4.678,8.218-4.678a3.942,3.942,0,0,0,1.573-1.6c.467-1.018,4.154-6.725,5.245-9.784a34.453,34.453,0,0,0,1.08-6.634,1.045,1.045,0,0,0-.351-1.079,20.21,20.21,0,0,1-3.933-3.973c-.767-1.131-1.651-4.076-.606-5.909a5.61,5.61,0,0,1,1.888-2.115,1,1,0,0,1,.99,0c.473.3,6.309,3.719,8.224,4.256a38.349,38.349,0,0,1-1.4-6.79l2.042-3.849,4.266,1.894a43.91,43.91,0,0,1,39.481-24.774,43.754,43.754,0,0,1,32.56,14.51l21.54-18.046A71.808,71.808,0,0,0-803.178,255.981Z" transform="translate(-2.394)" fill="url(#linear-gradient)"/>
    <g id="Group_1" data-name="Group 1" transform="translate(-885.812 304.997)">
      <path id="Path_2" data-name="Path 2" d="M-865.434,412.318s-1.846-1.551-2.477-2.048a3.331,3.331,0,0,0-4.3.429l-.2.269a2.673,2.673,0,0,0,.547,3.752,23.843,23.843,0,0,0,3.019,2.168c1.028.465,2.867.639,3.754-.549l.2-.27A2.68,2.68,0,0,0-865.434,412.318Z" transform="translate(877.541 -403.749)" fill="url(#linear-gradient-2)"/>
      <path id="Path_3" data-name="Path 3" d="M-873.38,428.994l-2.762-1.934a2.445,2.445,0,0,0-3.518.425l-.392.514a2.647,2.647,0,0,0,.532,3.634c.66.521,2.842,1.788,2.842,1.788a2.6,2.6,0,0,0,3.636-.533l.192-.26A2.752,2.752,0,0,0-873.38,428.994Z" transform="translate(882.431 -414.558)" fill="url(#linear-gradient-3)"/>
      <path id="Path_4" data-name="Path 4" d="M-881.924,444.157a2.454,2.454,0,0,0-3.432.5l-.183.247a3.2,3.2,0,0,0,.764,3.54,5.541,5.541,0,0,0,1.578.951,3.612,3.612,0,0,0,3.1-.131l.29-.2c1.223-1.025.773-2.5-.29-3.451C-880.531,445.229-881.924,444.157-881.924,444.157Z" transform="translate(885.812 -425.587)" fill="url(#linear-gradient-4)"/>
      <path id="Path_5" data-name="Path 5" d="M-859.1,393.229a3.04,3.04,0,0,0-2.709.365,2.666,2.666,0,0,0-.787,2.4,3.14,3.14,0,0,0,1.739,2.562,12.669,12.669,0,0,0,4.1-3.656A5.146,5.146,0,0,0-859.1,393.229Z" transform="translate(870.909 -393.087)" fill="url(#linear-gradient-5)"/>
      <path id="Path_6" data-name="Path 6" d="M-747.424,463.475a43.742,43.742,0,0,1-32.2,14.118,43.894,43.894,0,0,1-38.627-23.109l-9.322,4.157,4.435-2.924-1.956-3.8-.375-4.555s.554-3.59,4.106-8.485a2.261,2.261,0,0,0,.308-.743s-.438-7.844-.583-11.457a.874.874,0,0,0-.438-.857s-8.2-3.7-10.037-5.1c0,0-.231-.174-.758,0s-2.214,1.981-.991,4.893a11.061,11.061,0,0,0,6.79,5.349,3.012,3.012,0,0,1-1.7.28s-.632,6.72-1.158,8.059c0,0-4.04,8.608-7.186,12.163a6.883,6.883,0,0,0,.021,2.431,2.242,2.242,0,0,1-.991-2.009,54.941,54.941,0,0,0-7.341,3.888,40.4,40.4,0,0,1,4.343,4.045l1.828,3.987-4.725,2.1a72.036,72.036,0,0,0,64.353,39.789,71.8,71.8,0,0,0,53.745-24.166Z" transform="translate(859.86 -410.793)" fill="url(#linear-gradient-6)"/>
    </g>
  </g>
  <g id="Group_3" data-name="Group 3" transform="translate(-60.917 -337.769)">
    <text id="CHOSN" transform="translate(153.917 411.769)" fill="#707070" font-size="22" font-family="Nexa-Black, Nexa" font-weight="800"><tspan x="0" y="0">CHOSN</tspan></text>
    <text id="Relationship_Engagement_" data-name="Relationship Engagement " transform="translate(153.917 423.769)" fill="#707070" font-size="9" font-family="NexaLight, Nexa"><tspan x="0" y="0">Relationship Engagement </tspan></text>
  </g>
</svg>
