<svg xmlns="http://www.w3.org/2000/svg" width="42.783" height="43.86" viewBox="0 0 42.783 43.86"><g transform="translate(0.211 0.211)"><path d="M23.213,22.75c-.351-1.55-2.355-2.306-3.047-2.55a22.72,22.72,0,0,0-2.54-.488,2.581,2.581,0,0,1-1.175-.541,10.269,10.269,0,0,1-.078-2.4,7.232,7.232,0,0,0,.556-1.058,13.647,13.647,0,0,0,.41-1.848s.4,0,.541-.7a6.908,6.908,0,0,0,.361-1.633c-.029-.561-.336-.546-.336-.546a8.548,8.548,0,0,0,.332-2.5c.044-2-1.526-3.979-4.369-3.979-2.882,0-4.417,1.975-4.373,3.979a8.917,8.917,0,0,0,.327,2.5s-.307-.015-.336.546a6.908,6.908,0,0,0,.361,1.633c.137.7.541.7.541.7a13.647,13.647,0,0,0,.41,1.848,7.232,7.232,0,0,0,.556,1.058,10.269,10.269,0,0,1-.078,2.4,2.581,2.581,0,0,1-1.175.541,22.72,22.72,0,0,0-2.54.488c-.692.244-2.7,1-3.047,2.55a.39.39,0,0,0,.385.473H22.833A.389.389,0,0,0,23.213,22.75Z" transform="translate(9.319 7.139)" fill="none" stroke="#dc3f79" stroke-width="0.5"/><path d="M16.234,5.392a11.888,11.888,0,0,0-16.1,0,.406.406,0,0,0-.009.588L1,6.848a.415.415,0,0,0,.573.01,9.81,9.81,0,0,1,13.225,0,.415.415,0,0,0,.573-.01l.875-.869a.407.407,0,0,0-.009-.588Zm-2.87,2.9A7.849,7.849,0,0,0,3,8.295a.4.4,0,0,0-.015.592l.881.869a.417.417,0,0,0,.564.02,5.759,5.759,0,0,1,7.5,0,.417.417,0,0,0,.564-.02l.881-.869A.4.4,0,0,0,13.364,8.295Z" transform="translate(33.566 -1.446) rotate(50)" fill="none" stroke="#dc3f79" stroke-width="0.3"/><path d="M16.234,5.392a11.888,11.888,0,0,0-16.1,0,.406.406,0,0,0-.009.588L1,6.848a.415.415,0,0,0,.573.01,9.81,9.81,0,0,1,13.225,0,.415.415,0,0,0,.573-.01l.875-.869a.407.407,0,0,0-.009-.588Zm-2.87,2.9A7.849,7.849,0,0,0,3,8.295a.4.4,0,0,0-.015.592l.881.869a.417.417,0,0,0,.564.02,5.759,5.759,0,0,1,7.5,0,.417.417,0,0,0,.564-.02l.881-.869A.4.4,0,0,0,13.364,8.295Z" transform="matrix(-0.643, -0.766, 0.766, -0.643, 8.795, 44.884)" fill="none" stroke="#dc3f79" stroke-width="0.3"/></g></svg>